<svg width="14" height="14" viewBox="0 0 14 14" fill="none" xmlns="http://www.w3.org/2000/svg">
<path fill-rule="evenodd" clip-rule="evenodd" d="M13.4 6.9911C13.4 7.42392 13.3559 7.85614 13.2694 8.27745C13.185 8.68876 13.06 9.09256 12.8962 9.47858C12.7362 9.85777 12.5378 10.2232 12.3059 10.5639C12.0774 10.9026 11.8143 11.2202 11.5252 11.5098C11.2355 11.7982 10.9167 12.0606 10.5783 12.29C10.2364 12.5203 9.87047 12.7184 9.49106 12.8792C9.10448 13.0421 8.69975 13.1669 8.2888 13.2511C7.86693 13.3379 7.43313 13.3822 6.99969 13.3822C6.56592 13.3822 6.13215 13.3379 5.71088 13.2511C5.2993 13.1669 4.89459 13.0421 4.50832 12.8792C4.12893 12.7184 3.76264 12.5203 3.42076 12.29C3.0823 12.0606 2.76354 11.7982 2.47446 11.5098C2.18508 11.2202 1.92193 10.9026 1.69317 10.5639C1.46253 10.2232 1.26376 9.85774 1.10313 9.47858C0.939356 9.09256 0.814055 8.68874 0.72936 8.27745C0.643738 7.85614 0.599976 7.42392 0.599976 6.9911C0.599976 6.55796 0.643713 6.12481 0.729385 5.70443C0.81408 5.29312 0.939381 4.88869 1.10316 4.5033C1.26378 4.12384 1.46256 3.75811 1.69319 3.41731C1.92195 3.07842 2.18511 2.76134 2.47449 2.47143C2.76357 2.18307 3.08233 1.92127 3.42078 1.69222C3.76267 1.46096 4.12895 1.26282 4.50834 1.10178C4.89462 0.938541 5.2993 0.813421 5.7109 0.729799C6.13217 0.643675 6.56594 0.599976 6.99971 0.599976C7.43316 0.599976 7.86693 0.643675 8.28882 0.729799C8.69977 0.813446 9.10448 0.938566 9.49109 1.10178C9.87047 1.2628 10.2364 1.46096 10.5783 1.69222C10.9168 1.92127 11.2356 2.18307 11.5252 2.47143C11.8143 2.76134 12.0775 3.07842 12.3059 3.41731C12.5378 3.75811 12.7362 4.12386 12.8962 4.5033C13.06 4.88869 13.185 5.29312 13.2694 5.70443C13.3559 6.12481 13.4 6.55796 13.4 6.9911ZM4.66766 2.05451C3.14351 2.77322 2.00595 4.17563 1.65124 5.86578C1.79533 5.86703 4.07295 5.89575 6.69713 5.19951C5.75116 3.52121 4.74049 2.15159 4.66766 2.05451ZM7.14997 6.03994C4.33577 6.88124 1.6353 6.8207 1.53844 6.81697C1.53686 6.87563 1.53405 6.93241 1.53405 6.9911C1.53405 8.39319 2.06376 9.67141 2.93444 10.6379C2.93256 10.6351 4.42828 7.98533 7.3778 7.03292C7.44904 7.00921 7.52156 6.98797 7.59343 6.96738C7.45626 6.65721 7.30653 6.34638 7.14997 6.03994ZM10.6092 2.89492C9.64698 2.04764 8.3835 1.5337 6.99967 1.5337C6.55558 1.5337 6.12461 1.58738 5.71179 1.68661C5.79365 1.79647 6.82028 3.15644 7.75501 4.87028C9.81732 4.09824 10.5958 2.91488 10.6092 2.89492ZM7.96599 7.87175C7.95382 7.87577 7.94165 7.87925 7.92975 7.8836C4.70494 9.0062 3.65184 11.2685 3.64045 11.2932C4.56833 12.0138 5.73214 12.4485 6.99971 12.4485C7.7566 12.4485 8.47757 12.2946 9.13354 12.016C9.0526 11.5391 8.73509 9.86772 7.96599 7.87175ZM10.0539 11.5173C11.2811 10.6903 12.1527 9.37717 12.3959 7.85611C12.2834 7.81992 10.7542 7.33652 8.99006 7.61896C9.70697 9.58624 9.99825 11.1884 10.0539 11.5173ZM8.1757 5.68353C8.30256 5.94381 8.4254 6.20871 8.53883 6.47493C8.57916 6.57043 8.61854 6.66406 8.65697 6.75767C10.5346 6.52173 12.3843 6.91868 12.4634 6.93489C12.4509 5.64109 11.9874 4.45367 11.2206 3.52404C11.2102 3.53868 10.3336 4.80349 8.1757 5.68353Z" fill="white"/>
</svg>
