<svg width="14" height="14" viewBox="0 0 14 14" fill="none" xmlns="http://www.w3.org/2000/svg">
<path fill-rule="evenodd" clip-rule="evenodd" d="M7.00058 0.599976C5.26242 0.599976 5.04429 0.607576 4.36161 0.638643C3.68027 0.669843 3.2152 0.777711 2.80827 0.935979C2.38733 1.09945 2.03026 1.31812 1.67452 1.67399C1.31852 2.02972 1.09985 2.38679 0.935846 2.8076C0.777177 3.21467 0.669176 3.67987 0.638509 4.36095C0.607976 5.04362 0.599976 5.26189 0.599976 7.00004C0.599976 8.73819 0.607709 8.95566 0.638643 9.63834C0.669976 10.3197 0.777844 10.7847 0.935979 11.1917C1.09958 11.6126 1.31825 11.9697 1.67412 12.3254C2.02972 12.6814 2.38679 12.9006 2.80747 13.0641C3.21467 13.2224 3.67987 13.3302 4.36108 13.3614C5.04376 13.3925 5.26176 13.4001 6.99978 13.4001C8.73806 13.4001 8.95553 13.3925 9.6382 13.3614C10.3195 13.3302 10.7851 13.2224 11.1924 13.0641C11.6132 12.9006 11.9697 12.6814 12.3253 12.3254C12.6813 11.9697 12.9 11.6126 13.064 11.1918C13.2213 10.7847 13.3293 10.3195 13.3613 9.63847C13.392 8.9558 13.4 8.73819 13.4 7.00004C13.4 5.26189 13.392 5.04375 13.3613 4.36108C13.3293 3.67974 13.2213 3.21467 13.064 2.80773C12.9 2.38679 12.6813 2.02972 12.3253 1.67399C11.9693 1.31798 11.6133 1.09931 11.192 0.935979C10.7839 0.777711 10.3186 0.669843 9.63727 0.638643C8.9546 0.607576 8.73726 0.599976 6.99858 0.599976H7.00058ZM6.42641 1.7533C6.59681 1.75304 6.78695 1.7533 7.00055 1.7533C8.70937 1.7533 8.9119 1.75944 9.58671 1.7901C10.2107 1.81864 10.5494 1.9229 10.775 2.01051C11.0737 2.12651 11.2866 2.26517 11.5105 2.48918C11.7345 2.71318 11.8731 2.92652 11.9894 3.22518C12.077 3.45052 12.1814 3.78919 12.2098 4.4132C12.2405 5.08787 12.2471 5.29054 12.2471 6.99856C12.2471 8.70658 12.2405 8.90924 12.2098 9.58392C12.1813 10.2079 12.077 10.5466 11.9894 10.7719C11.8734 11.0706 11.7345 11.2833 11.5105 11.5071C11.2865 11.7311 11.0738 11.8698 10.775 11.9858C10.5497 12.0738 10.2107 12.1778 9.58671 12.2063C8.91203 12.237 8.70937 12.2437 7.00055 12.2437C5.2916 12.2437 5.08906 12.237 4.41439 12.2063C3.79038 12.1775 3.45171 12.0733 3.22598 11.9857C2.92731 11.8697 2.71397 11.731 2.48997 11.507C2.26597 11.283 2.1273 11.0702 2.01103 10.7714C1.92343 10.5461 1.81903 10.2074 1.79063 9.58339C1.75996 8.90871 1.75383 8.70604 1.75383 6.99696C1.75383 5.28787 1.75996 5.08627 1.79063 4.4116C1.81916 3.78759 1.92343 3.44892 2.01103 3.22332C2.12703 2.92465 2.26597 2.71131 2.48997 2.48731C2.71397 2.26331 2.92731 2.12464 3.22598 2.00837C3.45158 1.92037 3.79038 1.81637 4.41439 1.7877C5.00479 1.76104 5.2336 1.75304 6.42641 1.7517V1.7533ZM10.4169 2.81598C9.99285 2.81598 9.64885 3.15959 9.64885 3.58372C9.64885 4.00773 9.99285 4.35173 10.4169 4.35173C10.8409 4.35173 11.1849 4.00773 11.1849 3.58372C11.1849 3.15972 10.8409 2.81598 10.4169 2.81598ZM7.00059 3.71332C5.1855 3.71332 3.71389 5.18494 3.71389 7.00002C3.71389 8.81511 5.1855 10.2861 7.00059 10.2861C8.81567 10.2861 10.2868 8.81511 10.2868 7.00002C10.2868 5.18494 8.81567 3.71332 7.00059 3.71332ZM7.00056 4.86667C8.17871 4.86667 9.13392 5.82175 9.13392 7.00002C9.13392 8.17817 8.17871 9.13338 7.00056 9.13338C5.82228 9.13338 4.86721 8.17817 4.86721 7.00002C4.86721 5.82175 5.82228 4.86667 7.00056 4.86667Z" fill="white"/>
</svg>
